<?xml version="1.0" encoding="UTF-8"?>
<svg id="Layer_1" xmlns="http://www.w3.org/2000/svg" version="1.1" viewBox="0 0 455.66 126.7">
  <!-- Generator: Adobe Illustrator 29.8.1, SVG Export Plug-In . SVG Version: 2.1.1 Build 2)  -->
  <defs>
    <style>
      .st0 {
        fill: #231f20;
      }
    </style>
  </defs>
  <rect class="st0" x="239.69" y="25.64" width="2" height="75.43"/>
  <g>
    <path class="st0" d="M341.01,98.57l10.38-6.97.21-.56c.14-.37,3.34-9.15,3.34-21.44v-23.47l-.93-.99v24.46c0,12.12-3.15,20.75-3.28,21.11l-.11.28-10.9,7.29,1.29.29Z"/>
    <polygon class="st0" points="253.61 90 262.68 88.36 262.68 59.65 261.75 58.27 261.75 87.58 252.79 89.22 253.61 90"/>
    <polygon class="st0" points="287.77 40.11 287.77 83.68 281.63 84.35 282.22 85.19 288.7 84.52 288.7 40.76 287.77 40.11"/>
    <polygon class="st0" points="296.1 83.48 303.82 82.58 303.82 42.23 302.89 41.38 302.89 81.75 295.38 82.66 296.1 83.48"/>
    <polygon class="st0" points="333.69 80.2 340.43 79.8 340.43 45.62 339.49 44.54 339.49 78.93 332.97 79.31 333.69 80.2"/>
    <polygon class="st0" points="317.94 59.96 317.94 80.32 309.77 81.19 310.49 81.99 318.87 81.15 318.87 61.46 317.94 59.96"/>
    <polygon class="st0" points="372.47 63.88 374.95 57.26 374.61 55.8 371.45 63.88 372.47 63.88"/>
    <polygon class="st0" points="368.65 72.09 366.58 77.76 357.21 78.12 357.53 79.08 367.25 78.66 369.63 72.09 368.65 72.09"/>
    <polygon class="st0" points="380.06 45.91 392.7 77.1 383.56 77.13 384.07 78.04 394.09 78.03 381.38 46.69 380.06 45.91"/>
    <polygon class="st0" points="281.09 83.37 260.85 55.42 260.85 86.72 252.1 88.27 252.1 34.08 259.03 35.46 278.61 64.62 278.61 38.44 286.77 39.54 286.77 82.78 281.09 83.37"/>
    <polygon class="st0" points="301.89 80.85 301.89 41.35 295.06 40.51 295.06 81.69 301.89 80.85"/>
    <polygon class="st0" points="315.23 42.66 309.8 42.18 309.8 80.25 317.03 79.42 317.03 57.16 332.76 78.34 338.49 77.98 338.49 44.45 331.25 43.86 331.25 64.13 315.23 42.66"/>
    <path class="st0" d="M379.05,64.79h-8.94l4.49-11.53,4.44,11.53ZM370.38,45.77l-12.98,31.37,8.57-.36,2.06-5.68h13.1l1.97,4.99h8.11l-12.19-30.12-8.65-.21Z"/>
    <path class="st0" d="M349.82,90.34s3.19-8.68,3.19-20.74v-24.55l-7.67-.36v24.91c0,16.84-6.08,27.85-6.08,27.85l10.56-7.1Z"/>
  </g>
  <g>
    <path class="st0" d="M100.59,53.81c.24-10.39-7.87-13.76-16.87-13.76-8.52,0-17.76,4.37-17.76,13.88,0,7.03,4.97,9.74,10.12,11.45,5.86,1.95,10.18,2.36,10.18,5.43,0,2.78-3.14,4.07-5.68,4.07-2.13,0-3.67-.12-4.79-1.06-1.06-1.06-1.6-2.48-1.6-4.78h-12.61c-.53,10.75,8.23,15.17,17.93,15.17,9.17,0,19.06-4.78,19.06-14.94,0-5.02-2.49-9.03-9.82-11.63-4.14-1.48-10.48-1.65-10.48-4.84,0-2.77,2.84-3.42,5.03-3.42,1.48,0,2.84.24,3.79.94.95.71,1.54,1.77,1.48,3.48h12.02Z"/>
    <path class="st0" d="M97.82,83.21h11.72l3.43-16.24c.71-3.19,1.95-5.85,5.68-5.85,1.89,0,3.31,1,3.31,2.95,0,1.24-.59,3.31-.95,5.08l-3.02,14.05h11.72l3.73-17.3c.47-2.24.83-4.49.83-5.85,0-6.02-4.62-8.27-10-8.27-3.26,0-6.98,1.65-9.12,4.66h-.12l3.2-15.41h-11.72l-8.7,42.16Z"/>
    <path class="st0" d="M149.08,61.84c.65-2.3,2.31-3.13,4.68-3.13,1.78,0,3.67.53,3.67,2.66,0,3.78-5.27,3.31-8.58,3.54-8.82.65-14.86,2.83-14.86,10.92,0,5.85,4.68,8.15,9.94,8.15,3.43,0,7.4-1.24,9.47-3.72h.12c-.06,1,.12,2.01.41,2.95h11.48c-.3-.71-.47-1.59-.47-2.72,0-2.01,3.73-15.76,3.73-20.55,0-7.44-9.35-8.15-14.92-8.15-7.52,0-13.85,1.89-15.68,10.04h11.01ZM145.7,74.42c0-2.24,1.83-3.25,3.79-3.42,2.13-.18,4.32-.41,6.21-1.36-.71,4.55-2.31,7.44-6.27,7.44-1.9,0-3.73-.53-3.73-2.66"/>
    <path class="st0" d="M168.38,83.21h11.72l2.66-12.81c1.36-6.44,3.85-8.56,8.82-8.56,1.48,0,3.08.24,4.5.77l2.19-10.33c-1.07-.35-2.19-.47-4.14-.47-3.02,0-6.87,2.3-8.94,5.55h-.12l1.01-4.78h-11.36l-6.33,30.64Z"/>
    <polygon class="st0" points="202.21 41.06 193.45 83.21 205.17 83.21 207.01 74.48 209.67 72.11 213.81 83.21 226.54 83.21 218.73 64.91 232.52 52.57 218.49 52.57 209.85 61.54 209.73 61.54 213.93 41.06 202.21 41.06"/>
  </g>
</svg>